<?xml version="1.0" standalone="no"?>
<!DOCTYPE svg PUBLIC "-//W3C//DTD SVG 20010904//EN"
 "http://www.w3.org/TR/2001/REC-SVG-20010904/DTD/svg10.dtd">
<svg version="1.0" xmlns="http://www.w3.org/2000/svg"
 width="776.000000pt" height="766.000000pt" viewBox="0 0 776.000000 766.000000"
 preserveAspectRatio="xMidYMid meet">
<metadata>
Created by potrace 1.16, written by Peter Selinger 2001-2019
</metadata>
<g transform="translate(0.000000,766.000000) scale(0.100000,-0.100000)"
fill="#000000" stroke="none">
<path d="M3920 7655 c0 -5 -48 -61 -105 -124 -57 -62 -103 -117 -102 -121 1
-5 -15 -24 -35 -43 -25 -23 -38 -43 -38 -61 0 -16 -6 -26 -14 -26 -8 0 -40
-28 -72 -62 -63 -68 -348 -424 -379 -473 -11 -16 -43 -57 -71 -90 -28 -33
-100 -127 -159 -210 -60 -82 -143 -195 -185 -250 -107 -141 -210 -314 -210
-354 0 -14 -5 -18 -19 -14 -22 6 -48 -29 -193 -257 -118 -187 -255 -425 -366
-638 -90 -173 -202 -428 -202 -459 0 -13 -4 -23 -9 -23 -16 0 -59 -102 -91
-218 -17 -61 -37 -127 -45 -146 -50 -120 -67 -532 -32 -785 24 -173 53 -298
82 -354 14 -27 32 -77 40 -112 8 -35 26 -80 40 -100 14 -21 32 -61 40 -89 20
-70 97 -224 113 -225 6 -1 13 5 13 12 1 6 5 -10 10 -37 9 -58 56 -130 86 -134
16 -2 31 -23 57 -76 22 -46 46 -82 66 -96 18 -13 45 -45 62 -71 16 -27 36 -49
43 -49 8 0 16 -9 20 -20 15 -48 325 -299 425 -343 30 -14 66 -37 80 -52 14
-15 39 -33 55 -41 17 -7 37 -18 45 -23 40 -25 224 -103 300 -126 47 -15 100
-31 118 -37 21 -6 38 -6 43 -1 6 6 28 1 57 -14 87 -43 226 -64 467 -70 350 -9
463 9 875 139 135 43 484 230 588 315 24 20 47 46 52 58 5 13 19 27 32 31 12
4 35 19 49 33 15 14 41 36 58 49 17 13 31 29 31 35 0 7 13 18 29 25 32 14 122
112 163 177 14 22 40 53 56 69 17 16 34 42 37 57 4 16 13 29 21 29 7 0 20 13
29 30 8 16 23 33 32 39 17 9 17 10 1 16 -22 9 -24 25 -4 25 22 0 75 70 88 115
6 22 19 49 29 60 25 28 56 102 70 164 6 29 21 62 34 75 42 43 100 262 142 541
21 144 24 467 4 590 -17 108 -40 197 -56 215 -7 8 -16 33 -20 55 -11 66 -84
276 -114 330 -15 28 -35 75 -45 105 -10 30 -55 127 -100 215 -264 508 -428
777 -786 1280 -86 121 -188 265 -227 320 -104 148 -276 367 -330 422 -27 26
-64 74 -83 107 -19 32 -55 77 -80 100 -25 22 -57 61 -72 86 -14 25 -66 90
-114 145 -49 55 -98 112 -109 127 -11 15 -26 28 -34 30 -8 2 -23 19 -33 38
-20 39 -147 180 -148 165z m61 -342 c42 -46 158 -185 241 -291 76 -96 128
-152 144 -152 6 0 14 -10 18 -22 3 -13 39 -65 81 -117 41 -52 75 -97 75 -102
0 -5 33 -50 73 -101 90 -115 312 -418 436 -596 51 -73 104 -140 117 -148 13
-9 22 -20 19 -24 -4 -7 14 -39 123 -211 349 -552 604 -1054 702 -1379 17 -58
43 -143 57 -190 25 -84 26 -88 20 -320 -4 -129 -11 -275 -17 -325 -15 -128
-61 -357 -75 -375 -7 -8 -18 -33 -25 -55 -34 -111 -149 -347 -222 -456 -43
-64 -85 -122 -93 -129 -8 -7 -15 -18 -15 -24 0 -6 -18 -33 -40 -60 -22 -27
-43 -59 -46 -71 -3 -12 -15 -27 -27 -32 -37 -17 -165 -142 -198 -192 -22 -35
-37 -48 -54 -48 -30 0 -73 -32 -81 -60 -4 -15 -14 -23 -29 -23 -25 0 -140 -73
-148 -94 -3 -7 -20 -16 -39 -20 -44 -8 -98 -42 -98 -61 0 -9 -9 -15 -22 -15
-13 0 -61 -14 -108 -31 -348 -128 -421 -142 -775 -154 -179 -6 -202 -5 -390
23 -110 17 -213 37 -230 46 -16 9 -64 23 -105 32 -41 9 -86 24 -100 34 -33 22
-76 37 -126 45 -25 4 -51 16 -65 31 -12 13 -29 24 -36 24 -8 0 -16 7 -19 15
-4 8 -14 15 -24 15 -9 0 -25 9 -35 20 -23 26 -111 76 -147 85 -16 4 -28 13
-28 20 0 8 -33 41 -72 73 -93 77 -276 264 -358 367 -35 44 -85 103 -112 132
-26 28 -48 59 -48 68 0 10 -14 30 -31 46 -22 20 -30 35 -26 49 3 11 -1 27 -9
34 -7 8 -23 39 -34 69 -12 30 -34 72 -50 92 -19 24 -30 49 -30 70 0 18 -14 77
-31 131 -56 183 -96 408 -106 608 -10 201 42 513 116 698 15 40 46 118 67 173
42 109 310 646 372 747 92 149 256 405 279 435 14 18 22 36 19 41 -3 5 4 18
15 28 12 10 77 102 146 204 193 284 515 708 897 1180 170 210 233 280 255 280
10 0 33 -17 52 -37z"/>
<path d="M5304 3283 c-47 -9 -55 -32 -46 -134 5 -52 5 -140 1 -196 -14 -184
-71 -297 -224 -450 -91 -89 -166 -134 -293 -172 -120 -36 -130 -41 -109 -52
21 -12 22 -29 2 -29 -8 0 -22 11 -31 25 -13 20 -24 25 -60 25 -56 0 -84 -26
-84 -76 0 -31 4 -37 35 -50 35 -14 150 -19 193 -8 13 4 21 12 18 19 -7 19 5
27 21 14 35 -30 172 24 315 124 116 81 169 134 218 217 106 181 161 361 130
421 -8 14 -7 27 4 48 8 15 12 31 9 35 -4 4 -7 38 -8 76 0 54 -5 74 -22 98 -17
22 -19 32 -10 41 9 9 8 14 -3 21 -15 10 -20 10 -56 3z"/>
<path d="M7530 4469 c-173 -28 -627 -113 -693 -130 -106 -27 -185 -57 -208
-80 -25 -25 -24 -75 1 -116 22 -37 51 -47 112 -40 129 13 837 147 923 173 28
9 61 27 74 42 20 22 22 33 18 76 -6 68 -30 86 -111 85 -33 -1 -86 -5 -116 -10z"/>
<path d="M73 4361 c-42 -20 -73 -62 -73 -100 0 -34 45 -76 102 -93 76 -24 163
-38 230 -38 33 0 69 -6 81 -14 12 -7 92 -23 177 -35 85 -12 214 -34 285 -48
137 -26 196 -26 240 3 33 22 48 71 34 111 -21 61 -84 83 -358 123 -113 17
-298 46 -411 66 -113 19 -218 37 -235 40 -18 3 -47 -3 -72 -15z"/>
<path d="M6267 2190 c-26 -22 -37 -40 -37 -60 0 -59 47 -103 435 -405 70 -55
169 -132 219 -172 50 -40 121 -88 158 -108 64 -34 69 -35 92 -20 30 20 76 85
76 108 0 45 -83 120 -460 412 -313 243 -347 266 -403 272 -39 5 -48 1 -80 -27z"/>
<path d="M1215 2106 c-17 -7 -59 -37 -94 -67 -34 -30 -80 -66 -101 -80 -21
-14 -50 -39 -65 -57 -14 -17 -36 -34 -48 -38 -12 -4 -56 -37 -98 -73 -42 -36
-139 -119 -217 -185 -77 -65 -149 -131 -161 -146 -19 -27 -20 -31 -5 -79 20
-67 47 -86 103 -71 52 14 153 82 287 195 59 50 190 158 292 240 103 83 201
169 219 193 51 67 41 137 -24 171 -28 14 -51 13 -88 -3z"/>
<path d="M4946 1155 c-4 -11 -13 -14 -30 -9 -34 8 -52 -4 -29 -21 15 -11 15
-15 4 -29 -10 -12 -17 -13 -26 -6 -9 8 -15 8 -20 1 -8 -14 87 -243 137 -327
22 -38 72 -130 110 -204 149 -289 191 -360 234 -400 54 -49 106 -55 151 -16
24 21 28 31 28 78 -1 58 -31 133 -110 268 -24 41 -83 152 -133 245 -49 94
-112 209 -141 257 -87 145 -157 210 -175 163z"/>
<path d="M2707 1124 c-30 -16 -70 -89 -111 -204 -43 -119 -116 -369 -116 -397
0 -14 -9 -40 -19 -57 -10 -17 -38 -86 -60 -154 -37 -108 -42 -131 -39 -200 l3
-77 35 -17 c48 -23 64 -22 99 8 49 41 94 148 202 479 159 487 172 550 127 593
-21 19 -69 43 -86 42 -4 -1 -19 -8 -35 -16z"/>
</g>
</svg>
